<svg xmlns="http://www.w3.org/2000/svg" viewBox="0 0 360 260" role="img" aria-label="三弦示意图">
  <defs>
    <linearGradient id="wood" x1="0" x2="1">
      <stop offset="0" stop-color="#8b4a22"/>
      <stop offset="1" stop-color="#d69a53"/>
    </linearGradient>
  </defs>
  <rect width="360" height="260" rx="36" fill="#fff7e8"/>
  <ellipse cx="120" cy="165" rx="64" ry="52" fill="#c98a3f" stroke="#6b371b" stroke-width="10"/>
  <ellipse cx="120" cy="165" rx="38" ry="30" fill="#f5d7a2" opacity=".9"/>
  <path d="M158 137 C210 92 252 58 323 28" stroke="url(#wood)" stroke-width="30" stroke-linecap="round"/>
  <path d="M171 151 C224 108 265 77 329 49" stroke="#683719" stroke-width="12" stroke-linecap="round"/>
  <g stroke="#fff3c8" stroke-width="3">
    <path d="M114 128 C176 107 239 65 321 24"/>
    <path d="M120 161 C184 126 245 83 330 45"/>
    <path d="M118 191 C184 143 253 98 337 67"/>
  </g>
  <circle cx="318" cy="30" r="9" fill="#f05a3b"/>
  <circle cx="329" cy="49" r="9" fill="#3aa7d8"/>
  <circle cx="337" cy="67" r="9" fill="#8bbf3d"/>
  <text x="180" y="230" text-anchor="middle" font-family="Microsoft YaHei, sans-serif" font-size="28" fill="#74431f">三弦</text>
</svg>
